<svg xmlns="http://www.w3.org/2000/svg" viewBox="0 0 1280 720"><defs><style>.a{fill:rgb(51, 57, 81);fill-rule:evenodd;}</style></defs><title>logo-samoylov</title><path class="a" d="M38.6,587.59v5.12c0,14.59,5.11,22.51,17.12,26.48L34,656.68H54.7L74,621.88h6.9v34.8H98.52V557.9H73.61C49.84,557.9,38.6,566.61,38.6,587.59Zm42.42,18H73.61c-12.78,0-16.48-4.47-16.48-13.82v-3.33c0-9.34,2.56-14.33,16.23-14.33H81Zm60-47.47H116.24v98.52h18v-30.2H141c23.38,0,34.88-9.47,34.88-29.81v-9.08C175.9,566.74,164.79,558.16,141,558.16Zm17,37.62c0,9.34-4.22,13.69-17,13.69h-6.9V574.28h7.15c13.67,0,16.74,4.86,16.74,14.2ZM221.6,557c-23.76,0-32.83,8.57-32.83,29.43v41.71c0,20.34,9.45,29.43,32.83,29.43s33.6-9.08,33.6-29.43V586.44C255.2,565.58,245.36,557,221.6,557Zm16,70.24c0,9.34-3.19,14.71-16,14.71s-15.2-5.37-15.2-14.71V587.33c0-9,2.43-14.71,15.2-14.71,13.67,0,16,5.76,16,14.71Zm65.88-53.61c13.67,0,16,5.37,16,15h17.63c0-21.88-9.84-30.58-33.6-30.58s-32.83,8.58-32.83,29.43v40.05c0,20.34,9.45,29.43,32.83,29.43s33.6-9.08,33.6-30.71H319.42c0,9.73-3.2,15.1-16,15.1s-15.2-5.37-15.2-14.71V588.36C288.25,579,290.68,573.64,303.45,573.64Zm55.15,37.23c-.26,11.38.77,29.81-14.69,28.53l-.64,17.27c29,2.94,32.07-18.17,32.71-45.8l.9-36.85H400v82.65h17.63V557.9H359.5Zm96.16-52.59-27.21,98.39h18.14l5.11-17.4H476l5,17.4h18.14l-26.83-98.39Zm.38,63.72,8.18-36.47L471.5,622Zm98.08-19.2c8.3-3.33,12.14-10.87,12.14-19.44,0-18-12.27-25.47-29.26-25.47H507.87v98.78h26.7c22.36,0,35-7.16,35-30.71C569.58,612.54,563.45,605,553.23,602.81Zm-27.73-29h10.61c8.69,0,10.73,5.63,10.73,10.62,0,6.27-3.45,11.52-10.6,11.52H525.5Zm9.33,66.79h-9.45V612.28h9.2c12.9,0,16.1,4.47,16.1,14.07C550.67,638,546.2,640.56,534.83,640.56Zm111.73-66.92c13.67,0,16,5.37,16,15h17.63c0-21.88-9.84-30.58-33.6-30.58s-32.84,8.58-32.84,29.43v40.05c0,20.34,9.46,29.43,32.84,29.43s33.6-9.08,33.6-30.71H662.53c0,9.73-3.19,15.1-16,15.1s-15.2-5.37-15.2-14.71V588.36C631.36,579,633.79,573.64,646.56,573.64Zm67.54-15.36-27.21,98.39H705l5.11-17.4h25.17l5,17.4h18.14l-26.83-98.39Zm.38,63.72,8.18-36.47L730.84,622Zm91.05-20.22-20.06-43.63h-17v98.52h17.63v-34.8l-2-28.15,19.55,39.66h4l19.55-39.66-2,28.15v34.8h17.63V558.16h-17ZM891.86,557C868.1,557,859,565.58,859,586.44v41.71c0,20.34,9.45,29.43,32.84,29.43s33.6-9.08,33.6-29.43V586.44C925.46,565.58,915.62,557,891.86,557Zm16,70.24c0,9.34-3.19,14.71-16,14.71s-15.2-5.37-15.2-14.71V587.33c0-9,2.43-14.71,15.2-14.71,13.67,0,16,5.76,16,14.71Zm66.78-88.54c-4.85,0-7.92-1.28-8-6.66H952.5c.13,14.08,6.52,19.84,22.1,19.84,15.33,0,21.85-5.76,22-19.84H982.27C982.14,537.43,979.33,538.71,974.61,538.71Zm-16.86,84.44,2-41.84V558h-17.5v98.65H959.4l29-62.69-1.53,37.48v25.21h17.5V558h-17.5Zm71.38-12.28c-.26,11.38.77,29.81-14.69,28.53l-.64,17.27c29,2.94,32.07-18.17,32.71-45.8l.89-36.85h23.13v82.65h17.63V557.9H1030ZM1137.29,557c-23.76,0-32.84,8.57-32.84,29.43v41.71c0,20.34,9.45,29.43,32.84,29.43s33.6-9.08,33.6-29.43V586.44C1170.89,565.58,1161.05,557,1137.29,557Zm16,70.24c0,9.34-3.19,14.71-16,14.71s-15.2-5.37-15.2-14.71V587.33c0-9,2.43-14.71,15.2-14.71,13.67,0,16,5.76,16,14.71Zm78.53-24.44c8.3-3.33,12.14-10.87,12.14-19.44,0-18-12.27-25.47-29.26-25.47h-28.24v98.78h26.7c22.36,0,35-7.16,35-30.71C1248.14,612.54,1242,605,1231.79,602.81Zm-27.73-29h10.61c8.69,0,10.73,5.63,10.73,10.62,0,6.27-3.45,11.52-10.6,11.52h-10.73Zm9.33,66.79h-9.45V612.28h9.2c12.9,0,16.1,4.47,16.1,14.07C1229.23,638,1224.76,640.56,1213.39,640.56Zm-501.84-226C741.32,458.32,836.41,450.2,893.61,446s86.24-69,92.2-81.41,51.25-135.24,67.82-144.68l124.6-70L1156.9,235.4l36.46-18.82L1220,109.67,1117.71,69.31l-36.47,18.82,81.85,32.28-114.56,59.14v.1C1007.18,162.57,893.6,160,893.6,160,787,159.33,696.94,192.49,675,200.61c-36.85,13.65-25.26,59.83-25.26,59.83S681.78,370.75,711.55,414.54ZM685,259.8c6.61-25,96-69.52,190-66.74,106.51,3.15,110.45,40.28,110.45,40.28,8,13.69-15.66,104.7-29.91,132.88s-17.34,47.44-67.9,54.36-126.9,5.5-151.47-15.42S678.42,284.84,685,259.8Zm-65.81-26.92-43.47-1.28L577,188l-28.35-.84-1.28,43.57-29.56-.88v-.09l-13.73-.32-5-.15c-1.47-.55-21.55-8.06-42.3-16.78-21.56-9.05-109.39-47.83-215.82-53.5,0,0-129.13-4.65-163.24,13.69,0,0-36.28,26.94-2.14,73.13,2.67-.26,22.64,29.27,22.64,29.27s28,47.09,38.7,82.75S167.38,437,224.24,444.6s151.3,21.3,183.59-20.65,70.72-150.18,70.72-150.18,4.1-15.81,37.59-15.5h0l30.44.9-1.22,41.68,28.35.84L574.92,260l43.47,1.28ZM383.8,413.15c-25.75,19.43-102,16.33-152.11,6.44s-52-29.3-64.6-58.28S136.23,240.1,145,226.89c0,0,6.12-36.84,112.62-33.69,94,2.78,180.6,52.45,185.74,77.84S409.55,393.72,383.8,413.15Z"/></svg>